<svg version="1.2" xmlns="http://www.w3.org/2000/svg" viewBox="0 0 1601 486" width="99" height="100">
	<title>logo (21)-svg</title>
	<style>
		.s0 { fill: #000000 } 
	</style>
	<path id="Layer" fill-rule="evenodd" class="s0" d="m489.1 394q-0.2 1.2-0.7 2.2-0.5 1.1-1.2 2.1-0.7 0.9-1.6 1.7c-15.9 13.5-33 25.6-51.1 36.2-18 10.5-36.9 19.5-56.5 26.8-19.6 7.2-39.8 12.8-60.4 16.6-20.6 3.7-41.4 5.7-62.3 5.9-153.6 0-255.3-109.1-255.3-242.9 0-131.1 102.4-242.4 251.7-242.6 19.5 0.2 38.8 1.9 58 5.1 19.2 3.1 38.1 7.7 56.6 13.7 18.4 5.9 36.4 13.3 53.8 22 17.4 8.7 34.1 18.7 49.9 29.9q0.1 0.1 0.2 0.1 0.1 0.1 0.2 0.2 0 0.1 0.1 0.2 0 0 0.1 0.1 1 0.8 1.8 1.8 0.8 0.9 1.4 2.1 0.5 1.1 0.8 2.3 0.3 1.2 0.4 2.5-0.1 1-0.3 2-0.2 1-0.6 2-0.3 0.9-0.9 1.8-0.6 0.9-1.3 1.6l-58.1 63.1c-0.9 1.1-2 1.9-3.2 2.5-1.3 0.7-2.6 1-4 1.2-1.3 0.1-2.7-0.1-4-0.5-1.3-0.4-2.6-1.1-3.6-1.9-0.4 0-0.4 0-0.4 0-41.7-31-92.5-48.9-131.3-48.9-84.9 0-139.6 64-139.6 140.1 0 76.2 56.1 140.1 143.1 140.1 49.9 0 101.8-27.7 141.6-62.3q0 0 0.1 0 0.1 0 0.2 0 0.1 0 0.1 0 0.1 0 0.2 0 0.7-0.5 1.4-0.9 0.8-0.5 1.6-0.8 0.8-0.3 1.7-0.4 0.8-0.2 1.7-0.2 1.1 0 2.2 0.2 1.1 0.2 2.2 0.6 1 0.5 2 1.1 0.9 0.6 1.7 1.4l58.7 62.1q0.8 0.8 1.3 1.7 0.6 0.9 1 1.9 0.4 1 0.6 2 0.2 1.1 0.2 2.2 0.1 1.1-0.2 2.3zm513.5-276.4c7.8 12.3 14.3 25.4 19.5 39.1 5.2 13.6 9.1 27.7 11.6 42 2.5 14.4 3.7 29 3.4 43.6 0 63.7-22.4 122.5-64.5 163.9-40 39.2-97.4 65.1-187.9 65.1h-199.9c-1.5 0-3-0.3-4.3-0.9-1.4-0.5-2.6-1.3-3.7-2.4-1-1-1.8-2.3-2.4-3.6-0.5-1.4-0.8-2.8-0.8-4.3v-434.7c0-1.4 0.3-2.9 0.8-4.2 0.6-1.4 1.4-2.6 2.5-3.7 1-1 2.2-1.8 3.6-2.4 1.3-0.6 2.8-0.9 4.3-0.9h199.9c85.5 0 148.6 23.9 191.4 68.6 10 10.7 18.8 22.4 26.5 34.8zm-92.6 126.4c0-40-11.7-69.2-33.3-92.4-20.4-21.5-44.2-34.3-94.7-34.3h-85.7v251.3h85.6c47 0 70.8-10.4 91.1-30.1 24.2-23 37-51.8 37-94.5zm689.6 215.1q0.4 0.6 0.7 1.3 0.3 0.7 0.4 1.4 0.2 0.8 0.2 1.5 0 1.7-0.7 3.2-0.6 1.5-1.8 2.7-1.2 1.2-2.7 1.8-1.5 0.6-3.2 0.6h-129.3q-1.3 0-2.5-0.3-1.2-0.3-2.3-0.8-1.1-0.6-2.1-1.4-0.9-0.8-1.7-1.8l-153-192.5-55.4 52.5v132.6c0 1.4-0.3 2.9-0.9 4.2-0.5 1.4-1.4 2.6-2.4 3.7-1 1-2.3 1.8-3.6 2.4-1.4 0.6-2.8 0.8-4.3 0.8h-101.1c-1.5 0-2.9-0.3-4.2-0.8-1.3-0.6-2.6-1.4-3.6-2.4-1-1-1.8-2.2-2.4-3.6-0.6-1.3-0.9-2.7-0.9-4.2v-434.6c0-1.5 0.3-2.9 0.9-4.3 0.5-1.3 1.3-2.6 2.4-3.6 1-1 2.2-1.9 3.6-2.4 1.3-0.6 2.8-0.9 4.2-0.9h100.8c1.5 0 3 0.3 4.3 0.8 1.4 0.6 2.6 1.4 3.6 2.5 1.1 1 1.9 2.2 2.5 3.6 0.5 1.4 0.8 2.8 0.8 4.3v160.4l177.2-168.5q0.7-0.8 1.6-1.3 0.9-0.6 1.9-1 1-0.4 2-0.6 1-0.2 2.1-0.2h130q1.7 0 3.2 0.7 1.5 0.6 2.7 1.8 1.2 1.1 1.8 2.7 0.6 1.5 0.6 3.2 0.1 0.9-0.1 1.8-0.2 0.8-0.5 1.7-0.4 0.8-0.9 1.5-0.6 0.8-1.2 1.4l-178.8 166.9 211.2 262q0.5 0.6 0.9 1.2z"/>
</svg>