<svg width="67" height="72" viewBox="0 0 67 72" fill="none" xmlns="http://www.w3.org/2000/svg">
<mask id="path-1-outside-1_15_73" maskUnits="userSpaceOnUse" x="0" y="0" width="67" height="72" fill="black">
<rect fill="white" width="67" height="72" shape-rendering="crispEdges"/>
<path d="M61.9851 50.9526C60.3933 53.7076 37.2198 67.0696 33.957 67.1138C30.6942 67.1581 7.1429 54.429 5.47192 51.7182C3.80095 49.0074 3.42307 22.9164 5.01488 20.1613C6.6067 17.4063 29.7802 4.04431 33.043 4.00012C36.3058 3.95586 59.8571 16.6849 61.5281 19.3957C63.1991 22.1065 63.5769 48.1976 61.9851 50.9526Z"/>
</mask>
<path d="M61.9851 50.9526C60.3933 53.7076 37.2198 67.0696 33.957 67.1138C30.6942 67.1581 7.1429 54.429 5.47192 51.7182C3.80095 49.0074 3.42307 22.9164 5.01488 20.1613C6.6067 17.4063 29.7802 4.04431 33.043 4.00012C36.3058 3.95586 59.8571 16.6849 61.5281 19.3957C63.1991 22.1065 63.5769 48.1976 61.9851 50.9526Z" fill="url(#paint0_linear_15_73)"/>
<path d="M61.9851 50.9526C60.3933 53.7076 37.2198 67.0696 33.957 67.1138C30.6942 67.1581 7.1429 54.429 5.47192 51.7182C3.80095 49.0074 3.42307 22.9164 5.01488 20.1613C6.6067 17.4063 29.7802 4.04431 33.043 4.00012C36.3058 3.95586 59.8571 16.6849 61.5281 19.3957C63.1991 22.1065 63.5769 48.1976 61.9851 50.9526Z" stroke="black" stroke-width="8" mask="url(#path-1-outside-1_15_73)"/>
<path d="M10.6479 29.6454C13.981 31.3879 16.625 33.252 18.5798 35.2378C20.5586 37.2108 22.0618 39.0492 23.0892 40.7531C23.9167 42.1495 24.6 43.6228 25.1393 45.1729C25.6781 46.6974 25.9644 48.3436 25.9983 50.1114C26.0234 51.4181 25.7679 52.6415 25.2317 53.7816C24.695 54.896 23.9817 55.6518 23.0916 56.0489C22.154 56.4972 21.2619 56.7917 20.4154 56.9326C19.5935 57.0862 18.4632 56.9773 17.0246 56.6056C15.61 56.2212 13.7998 55.4524 11.5941 54.2993C9.92752 53.4281 8.41658 52.4479 7.06126 51.3589C5.70545 50.2443 5.01844 49.213 5.00025 48.265C4.99288 47.8807 5.14653 47.6694 5.4612 47.6309C5.79989 47.5797 6.1653 47.6566 6.55743 47.8616C6.77801 47.9769 6.9253 48.0666 6.99932 48.1307C7.13843 46.5294 7.18979 44.7807 7.15341 42.8848C7.11261 40.7582 7.02991 38.9776 6.90533 37.5428C6.78026 36.0824 6.61867 34.6156 6.42057 33.1423C6.39262 32.9502 6.32176 32.4185 6.208 31.5474C6.11874 30.6891 6.066 29.8372 6.04978 28.9917C6.03945 28.4536 6.28819 28.1398 6.79597 28.0502C7.30327 27.9349 7.82651 28.0182 8.36569 28.3001C8.6843 28.4667 9.11368 28.7165 9.65384 29.0496C10.096 29.3315 10.4273 29.5301 10.6479 29.6454ZM10.5689 50.1871C11.1591 50.597 11.9321 51.0519 12.8879 51.5516C14.5055 52.3972 16.0306 52.8521 17.4633 52.9162C18.8955 52.9548 20.0407 52.577 20.8989 51.7828C21.7566 50.963 22.1695 49.7204 22.1375 48.055C22.1041 46.3128 21.7815 44.673 21.1697 43.1357C20.5579 41.5984 19.6317 40.1123 18.391 38.6774C17.4729 37.6141 16.3497 36.6084 15.0213 35.6603C13.6925 34.6866 12.0968 33.7128 10.2341 32.7391C10.2459 33.354 10.2975 34.1419 10.3887 35.1027C10.3946 35.4101 10.4294 35.961 10.4932 36.7552C10.6973 39.8041 10.8167 42.2381 10.8516 44.0572C10.9023 46.6962 10.8081 48.7395 10.5689 50.1871Z" fill="black"/>
<path d="M59.9462 46.5432C60.4584 46.2921 60.8296 46.3052 61.06 46.5826C61.3182 46.8204 61.4404 47.1638 61.4266 47.613C61.4095 48.1679 61.303 48.6104 61.107 48.9408C60.9388 49.2314 60.6084 49.6146 60.1159 50.0903C58.9675 51.1738 57.5528 52.2837 55.8719 53.4202C54.1909 54.5566 52.3935 55.5939 50.4797 56.5322C48.0807 57.7084 46.3273 58.1777 45.2196 57.9401C44.1388 57.6893 43.4807 57.0751 43.2453 56.0975C43.0376 55.0803 42.9618 53.6601 43.0179 51.837C43.078 49.8818 43.2178 47.9265 43.4372 45.9713C43.6574 43.9896 44.0148 41.4332 44.5093 38.3022C44.737 36.9414 45.2772 35.7787 46.1299 34.8142C46.9834 33.8232 47.9088 33.0833 48.9061 32.5943C49.7417 32.1846 51.1038 31.4908 52.9923 30.5129L56.5111 28.7486C57.9667 28.035 59.0167 27.5592 59.6612 27.3213C60.465 27.0834 61.0523 26.9776 61.4232 27.0039C61.8218 26.9907 62.0138 27.2218 61.9992 27.6974C61.983 28.2259 61.7784 28.8336 61.3856 29.5206C61.0198 30.1945 60.473 30.7098 59.7452 31.0666C58.9096 31.4763 57.7117 32.0115 56.1515 32.6723C54.5914 33.3331 53.4205 33.8552 52.6388 34.2384C51.9649 34.5688 51.3033 34.9322 50.6539 35.3287C49.8975 35.7515 49.3556 36.1083 49.0281 36.399C48.7005 36.6897 48.5049 37.0068 48.4413 37.3503C47.9802 40.2568 47.7298 42.3574 47.69 43.6521C48.3075 43.4274 48.9128 43.1696 49.5058 42.8789C50.2605 42.5089 51.0704 42.0728 51.9354 41.5706C52.8004 41.0684 53.3546 40.7447 53.598 40.5993C55.0307 39.7668 56.2592 39.0994 57.2835 38.5972C57.8765 38.3065 58.318 38.1941 58.608 38.2601C58.925 38.3129 59.0778 38.5243 59.0664 38.8942C59.0485 39.4755 58.873 40.0039 58.5398 40.4796C58.2335 40.942 57.6871 41.4441 56.9005 41.9859C55.9514 42.6334 54.7744 43.3536 53.3695 44.1465C51.9915 44.9262 50.6421 45.6398 49.3213 46.2874C48.8631 46.512 48.2304 46.7962 47.4234 47.1398C47.293 48.7912 47.2066 50.3038 47.1644 51.6778C47.1067 53.5537 48.3447 53.8706 50.8785 52.6283C52.2263 51.9676 53.3478 51.3266 54.243 50.7056C55.1382 50.0845 56.1706 49.3181 57.3402 48.4064C58.4306 47.4814 59.2993 46.8603 59.9462 46.5432Z" fill="black"/>
<path d="M33.1209 20.4761C35.556 20.4761 37.5301 19.8548 37.5301 19.0883C37.5301 18.3219 35.556 17.7006 33.1209 17.7006C30.6857 17.7006 28.7117 18.3219 28.7117 19.0883C28.7117 19.8548 30.6857 20.4761 33.1209 20.4761Z" fill="black"/>
<mask id="path-5-outside-2_15_73" maskUnits="userSpaceOnUse" x="11.521" y="22.6524" width="45" height="27" fill="black">
<rect fill="white" x="11.521" y="22.6524" width="45" height="27"/>
<path d="M54.7985 25.3322C54.7985 25.7904 53.9954 26.4648 52.3893 27.3557C50.4723 28.4246 45.4726 31.7079 37.3901 37.2055C37.4937 40.4887 37.701 42.7412 38.0118 43.9629C38.1673 44.7264 38.245 45.2736 38.245 45.6045C38.245 46.4444 37.9341 47.0171 37.3124 47.3225C36.7425 47.6025 35.7322 47.7425 34.2815 47.7425C33.1934 47.7425 32.1572 47.5897 31.1728 47.2843C30.2402 46.9535 29.7739 46.559 29.7739 46.1008C29.7739 44.2429 29.6962 41.5195 29.5408 37.9308C29.5408 37.7781 29.3336 37.5236 28.9191 37.1673C28.5046 36.811 28.2455 36.5819 28.1419 36.4801C27.0539 35.5384 25.6809 34.4949 24.023 33.3495C22.4168 32.1788 21.018 31.3007 19.8263 30.7153C17.5466 29.5954 15.7592 28.5901 14.4639 27.6993C13.1686 26.783 12.521 26.134 12.521 25.7522C12.521 25.2177 13.0132 24.7978 13.9976 24.4923C15.0338 24.1615 16.1478 23.996 17.3394 23.996C18.0129 23.996 18.7124 24.0851 19.4377 24.2633C20.2149 24.4414 20.8366 24.696 21.3029 25.0268C24.3597 27.2666 27.0798 29.1245 29.4631 30.6007L33.1157 32.9296C35.3436 31.8097 37.2865 30.7026 38.9444 29.6081C40.6542 28.4883 42.5194 27.1648 44.54 25.6377L45.8611 24.6451C46.8455 23.9833 48.374 23.6524 50.4464 23.6524C51.4308 23.6524 52.3893 23.7924 53.3219 24.0724C54.3063 24.3524 54.7985 24.7723 54.7985 25.3322Z"/>
</mask>
<path d="M54.7985 25.3322C54.7985 25.7904 53.9954 26.4648 52.3893 27.3557C50.4723 28.4246 45.4726 31.7079 37.3901 37.2055C37.4937 40.4887 37.701 42.7412 38.0118 43.9629C38.1673 44.7264 38.245 45.2736 38.245 45.6045C38.245 46.4444 37.9341 47.0171 37.3124 47.3225C36.7425 47.6025 35.7322 47.7425 34.2815 47.7425C33.1934 47.7425 32.1572 47.5897 31.1728 47.2843C30.2402 46.9535 29.7739 46.559 29.7739 46.1008C29.7739 44.2429 29.6962 41.5195 29.5408 37.9308C29.5408 37.7781 29.3336 37.5236 28.9191 37.1673C28.5046 36.811 28.2455 36.5819 28.1419 36.4801C27.0539 35.5384 25.6809 34.4949 24.023 33.3495C22.4168 32.1788 21.018 31.3007 19.8263 30.7153C17.5466 29.5954 15.7592 28.5901 14.4639 27.6993C13.1686 26.783 12.521 26.134 12.521 25.7522C12.521 25.2177 13.0132 24.7978 13.9976 24.4923C15.0338 24.1615 16.1478 23.996 17.3394 23.996C18.0129 23.996 18.7124 24.0851 19.4377 24.2633C20.2149 24.4414 20.8366 24.696 21.3029 25.0268C24.3597 27.2666 27.0798 29.1245 29.4631 30.6007L33.1157 32.9296C35.3436 31.8097 37.2865 30.7026 38.9444 29.6081C40.6542 28.4883 42.5194 27.1648 44.54 25.6377L45.8611 24.6451C46.8455 23.9833 48.374 23.6524 50.4464 23.6524C51.4308 23.6524 52.3893 23.7924 53.3219 24.0724C54.3063 24.3524 54.7985 24.7723 54.7985 25.3322Z" fill="black"/>
<path d="M54.7985 25.3322C54.7985 25.7904 53.9954 26.4648 52.3893 27.3557C50.4723 28.4246 45.4726 31.7079 37.3901 37.2055C37.4937 40.4887 37.701 42.7412 38.0118 43.9629C38.1673 44.7264 38.245 45.2736 38.245 45.6045C38.245 46.4444 37.9341 47.0171 37.3124 47.3225C36.7425 47.6025 35.7322 47.7425 34.2815 47.7425C33.1934 47.7425 32.1572 47.5897 31.1728 47.2843C30.2402 46.9535 29.7739 46.559 29.7739 46.1008C29.7739 44.2429 29.6962 41.5195 29.5408 37.9308C29.5408 37.7781 29.3336 37.5236 28.9191 37.1673C28.5046 36.811 28.2455 36.5819 28.1419 36.4801C27.0539 35.5384 25.6809 34.4949 24.023 33.3495C22.4168 32.1788 21.018 31.3007 19.8263 30.7153C17.5466 29.5954 15.7592 28.5901 14.4639 27.6993C13.1686 26.783 12.521 26.134 12.521 25.7522C12.521 25.2177 13.0132 24.7978 13.9976 24.4923C15.0338 24.1615 16.1478 23.996 17.3394 23.996C18.0129 23.996 18.7124 24.0851 19.4377 24.2633C20.2149 24.4414 20.8366 24.696 21.3029 25.0268C24.3597 27.2666 27.0798 29.1245 29.4631 30.6007L33.1157 32.9296C35.3436 31.8097 37.2865 30.7026 38.9444 29.6081C40.6542 28.4883 42.5194 27.1648 44.54 25.6377L45.8611 24.6451C46.8455 23.9833 48.374 23.6524 50.4464 23.6524C51.4308 23.6524 52.3893 23.7924 53.3219 24.0724C54.3063 24.3524 54.7985 24.7723 54.7985 25.3322Z" stroke="black" stroke-width="2" mask="url(#path-5-outside-2_15_73)"/>
<defs>
<linearGradient id="paint0_linear_15_73" x1="12.5" y1="33" x2="51" y2="53.5" gradientUnits="userSpaceOnUse">
<stop stop-color="#CDC1EE"/>
<stop offset="1" stop-color="#C9E2F8"/>
</linearGradient>
</defs>
</svg>
