<svg width="2076" height="2215" viewBox="0 0 2076 2215" fill="none" xmlns="http://www.w3.org/2000/svg">
<g id="Banner Logo">
<path id="path1121" d="M2003.6 1629.61C1949.64 1723 1164.1 2175.95 1053.49 2177.45C942.889 2178.95 144.539 1747.46 87.8957 1655.57C31.2525 1563.67 18.4429 679.232 72.4028 585.842C126.363 492.452 911.904 39.5022 1022.51 38.0039C1133.11 36.5036 1931.46 467.998 1988.1 559.889C2044.75 651.781 2057.56 1536.22 2003.6 1629.61Z" fill="url(#paint0_linear_35_3)" stroke="black" stroke-width="75"/>
<path id="D" d="M326.454 906.776C439.441 965.844 529.067 1029.03 595.332 1096.35C662.412 1163.23 713.366 1225.55 748.195 1283.31C776.244 1330.64 799.408 1380.59 817.688 1433.13C835.951 1484.81 845.658 1540.61 846.807 1600.54C847.657 1644.83 838.995 1686.3 820.82 1724.95C802.629 1762.73 778.447 1788.35 748.274 1801.81C716.49 1817.01 686.251 1826.99 657.557 1831.77C629.694 1836.97 591.379 1833.28 542.612 1820.68C494.66 1807.65 433.299 1781.59 358.528 1742.5C302.035 1712.97 250.816 1679.74 204.873 1642.83C158.913 1605.04 135.625 1570.09 135.009 1537.95C134.759 1524.92 139.967 1517.76 150.634 1516.46C162.115 1514.72 174.502 1517.33 187.794 1524.28C195.271 1528.18 200.264 1531.22 202.773 1533.4C207.489 1479.11 209.23 1419.84 207.997 1355.57C206.614 1283.48 203.811 1223.12 199.588 1174.48C195.348 1124.98 189.87 1075.26 183.155 1025.32C182.207 1018.8 179.806 1000.78 175.949 971.251C172.923 942.155 171.136 913.277 170.586 884.617C170.236 866.378 178.667 855.739 195.881 852.701C213.077 848.794 230.814 851.618 249.091 861.173C259.891 866.819 274.447 875.288 292.757 886.58C307.745 896.135 318.977 902.867 326.454 906.776ZM323.778 1603.1C343.783 1617 369.986 1632.42 402.387 1649.36C457.219 1678.02 508.918 1693.44 557.484 1695.62C606.034 1696.93 644.854 1684.12 673.946 1657.2C703.021 1629.41 717.017 1587.28 715.934 1530.83C714.801 1471.77 703.865 1416.19 683.126 1364.07C662.387 1311.96 630.99 1261.59 588.934 1212.95C557.811 1176.9 519.736 1142.81 474.707 1110.67C429.661 1077.66 375.568 1044.66 312.429 1011.65C312.829 1032.49 314.575 1059.2 317.667 1091.77C317.867 1102.19 319.048 1120.86 321.209 1147.79C328.127 1251.14 332.178 1333.65 333.361 1395.31C335.077 1484.77 331.883 1554.03 323.778 1603.1Z" fill="black" stroke="black" stroke-width="4"/>
<path id="E" d="M1871.45 1480.48C1888.81 1471.97 1901.39 1472.41 1909.2 1481.82C1917.96 1489.88 1922.1 1501.52 1921.63 1516.75C1921.05 1535.55 1917.44 1550.56 1910.8 1561.75C1905.09 1571.61 1893.89 1584.6 1877.2 1600.72C1838.27 1637.45 1790.32 1675.08 1733.33 1713.6C1676.35 1752.12 1615.42 1787.29 1550.55 1819.09C1469.23 1858.96 1409.79 1874.87 1372.24 1866.82C1335.6 1858.31 1313.29 1837.49 1305.31 1804.36C1298.27 1769.87 1295.71 1721.73 1297.61 1659.93C1299.64 1593.65 1304.38 1527.37 1311.82 1461.09C1319.29 1393.92 1331.4 1307.26 1348.16 1201.12C1355.88 1155 1374.19 1115.58 1403.1 1082.89C1432.03 1049.3 1463.4 1024.21 1497.21 1007.64C1525.53 993.75 1571.7 970.231 1635.72 937.081L1755 877.275C1804.35 853.084 1839.94 836.956 1861.79 828.892C1889.03 820.826 1908.94 817.24 1921.52 818.134C1935.03 817.684 1941.54 825.519 1941.04 841.641C1940.49 859.555 1933.56 880.156 1920.24 903.445C1907.84 926.287 1889.3 943.755 1864.63 955.851C1836.31 969.738 1795.7 987.882 1742.81 1010.28C1689.93 1032.68 1650.24 1050.38 1623.74 1063.37C1600.89 1074.57 1578.47 1086.89 1556.45 1100.33C1530.81 1114.66 1512.44 1126.76 1501.34 1136.61C1490.24 1146.47 1483.61 1157.21 1481.45 1168.86C1465.82 1267.38 1457.33 1338.59 1455.98 1382.48C1476.91 1374.86 1497.43 1366.12 1517.53 1356.27C1543.12 1343.72 1570.57 1328.94 1599.89 1311.92C1629.22 1294.9 1648 1283.92 1656.25 1278.99C1704.82 1250.77 1746.46 1228.15 1781.19 1211.13C1801.29 1201.27 1816.25 1197.46 1826.09 1199.7C1836.83 1201.49 1842.01 1208.65 1841.62 1221.19C1841.02 1240.9 1835.07 1258.81 1823.77 1274.94C1813.39 1290.61 1794.87 1307.63 1768.2 1326C1736.03 1347.95 1696.13 1372.36 1648.51 1399.24C1601.8 1425.67 1556.05 1449.86 1511.28 1471.81C1495.75 1479.42 1474.3 1489.06 1446.95 1500.7C1442.52 1556.68 1439.6 1607.96 1438.17 1654.54C1436.21 1718.13 1478.18 1728.87 1564.07 1686.76C1609.76 1664.36 1647.77 1642.63 1678.12 1621.58C1708.46 1600.53 1743.46 1574.55 1783.11 1543.64C1820.07 1512.28 1849.52 1491.23 1871.45 1480.48Z" fill="black" stroke="black" stroke-width="4"/>
<path id="path7600" d="M1025.15 596.512C1107.7 596.512 1174.61 575.451 1174.61 549.47C1174.61 523.489 1107.7 502.427 1025.15 502.427C942.602 502.427 875.684 523.489 875.684 549.47C875.684 575.451 942.602 596.512 1025.15 596.512Z" fill="black" stroke="black" stroke-width="4"/>
<path id="Y" d="M1759.98 761.126C1759.98 776.656 1732.76 799.52 1678.31 829.716C1613.33 865.953 1443.85 977.25 1169.87 1163.61C1173.38 1274.91 1180.41 1351.26 1190.94 1392.67C1196.21 1418.56 1198.85 1437.11 1198.85 1448.32C1198.85 1476.79 1188.31 1496.21 1167.23 1506.56C1147.91 1516.05 1113.67 1520.79 1064.49 1520.79C1027.61 1520.79 992.482 1515.62 959.113 1505.26C927.499 1494.05 911.693 1480.68 911.693 1465.15C911.693 1402.16 909.058 1309.85 903.789 1188.2C903.789 1183.02 896.764 1174.39 882.714 1162.31C868.664 1150.24 859.882 1142.47 856.37 1139.02C819.487 1107.1 772.946 1071.72 716.744 1032.9C662.299 993.211 614.879 963.446 574.485 943.602C497.208 905.64 436.616 871.561 392.709 841.364C348.801 810.304 326.848 788.304 326.848 775.362C326.848 757.244 343.532 743.008 376.902 732.655C412.028 721.439 449.788 715.831 490.183 715.831C513.015 715.831 536.724 718.851 561.313 724.89C587.657 730.929 608.732 739.557 624.539 750.773C728.16 826.697 820.366 889.679 901.155 939.72L1024.97 1018.66C1100.49 980.701 1166.35 943.171 1222.56 906.072C1280.51 868.11 1343.74 823.246 1412.24 771.48L1457.02 737.832C1490.39 715.4 1542.2 704.184 1612.45 704.184C1645.82 704.184 1678.31 708.929 1709.93 718.419C1743.3 727.91 1759.98 742.145 1759.98 761.126Z" fill="black" stroke="black"/>
</g>
<defs>
<linearGradient id="paint0_linear_35_3" x1="326.136" y1="1021.05" x2="1631.22" y2="1715.97" gradientUnits="userSpaceOnUse">
<stop stop-color="#CDC1EE"/>
<stop offset="1" stop-color="#C9E2F8"/>
</linearGradient>
</defs>
</svg>
